<svg xmlns="http://www.w3.org/2000/svg" viewBox="0 0 1200 630" fill="none">
  <rect width="1200" height="630" fill="#FBF7F4"/>

  <!-- subtle grid -->
  <g opacity="0.05" stroke="#7B4325" stroke-width="1">
    <line x1="0" y1="80" x2="1200" y2="80"/>
    <line x1="0" y1="160" x2="1200" y2="160"/>
    <line x1="0" y1="240" x2="1200" y2="240"/>
    <line x1="0" y1="320" x2="1200" y2="320"/>
    <line x1="0" y1="400" x2="1200" y2="400"/>
    <line x1="0" y1="480" x2="1200" y2="480"/>
    <line x1="0" y1="560" x2="1200" y2="560"/>
    <line x1="120" y1="0" x2="120" y2="630"/>
    <line x1="240" y1="0" x2="240" y2="630"/>
    <line x1="360" y1="0" x2="360" y2="630"/>
    <line x1="480" y1="0" x2="480" y2="630"/>
    <line x1="600" y1="0" x2="600" y2="630"/>
    <line x1="720" y1="0" x2="720" y2="630"/>
    <line x1="840" y1="0" x2="840" y2="630"/>
    <line x1="960" y1="0" x2="960" y2="630"/>
    <line x1="1080" y1="0" x2="1080" y2="630"/>
  </g>

  <!-- F mark (large) -->
  <g transform="translate(460,150) scale(1.5)">
    <path d="M 28 20 L 28 220 Q 28 228 36 228 L 56 228 Q 64 228 64 220 L 64 108 L 120 108 Q 168 108 168 62 Q 168 18 120 18 L 36 18 Q 28 18 28 20 Z M 64 44 L 116 44 Q 138 44 138 62 Q 138 80 116 82 L 64 82 Z" fill="#7B4325" fillRule="evenodd"/>
    <path d="M 64 108 L 64 196 Q 64 204 72 204 L 90 204 Q 98 204 98 196 L 98 172 L 106 172 Q 140 172 140 148 Q 140 124 106 124 L 98 124 L 98 108 Z M 98 136 L 108 136 Q 122 136 122 148 Q 122 160 108 160 L 98 160 Z" fill="#A0622E" fillRule="evenodd"/>
    <rect x="64" y="210" width="34" height="18" rx="6" fill="#C99A72"/>
  </g>

  <!-- Wordmark -->
  <text x="600" y="540" text-anchor="middle"
        fontFamily="system-ui, -apple-system, 'Segoe UI', sans-serif"
        fontSize="64" fontWeight="600" letterSpacing="-1.5" fill="#1E1E1E">
    Firdam
  </text>
  <text x="600" y="588" text-anchor="middle"
        fontFamily="system-ui, -apple-system, 'Segoe UI', sans-serif"
        fontSize="24" fontWeight="400" fill="#7B4325">
    Everything that matters. One place.
  </text>
</svg>
